<svg xmlns="http://www.w3.org/2000/svg" viewBox="0 0 41.42 46.52"><title>sole-applicant-with-kids</title><g id="Layer_2" data-name="Layer 2"><g id="Layer_1-2" data-name="Layer 1"><g id="sole-applicant-with-kids"><path d="M1.1,41a2.59,2.59,0,0,0,2.22,2.89H19.69a.31.31,0,0,1,0-.1H3.32A2.5,2.5,0,0,1,1.2,41c0-10.45,5.5-16.62,15.49-17.35A19.57,19.57,0,0,1,24,25.52v.22a1.67,1.67,0,0,1,0-.32,19.63,19.63,0,0,0-7.35-1.88C6.64,24.28,1.1,30.48,1.1,41ZM0,41a3.71,3.71,0,0,0,3.27,4H19.9a1.05,1.05,0,0,1,0-.1H3.28A3.61,3.61,0,0,1,.1,41C.1,29.88,6,23.33,16.69,22.54a21.08,21.08,0,0,1,7.46,1.83s0-.07,0-.11a21.35,21.35,0,0,0-7.48-1.82C5.9,23.23,0,29.82,0,41ZM25,29.44a6.66,6.66,0,0,0,.73,1A7.43,7.43,0,0,1,25,29.44ZM27.67,32l.17.09h0Z"/><path d="M6.91,10.51C6.91,4.77,11.28.1,16.65.1S26.4,4.77,26.4,10.51,22,20.92,16.65,20.92,6.91,16.25,6.91,10.51Zm1,0c0,5.19,3.92,9.41,8.74,9.41s8.74-4.22,8.74-9.41S21.47,1.1,16.65,1.1,7.91,5.32,7.91,10.51Z"/><path d="M6.81,10.51C6.81,4.71,11.22,0,16.65,0S26.5,4.71,26.5,10.51,22.08,21,16.65,21,6.81,16.3,6.81,10.51Zm1.2,0c0,5.13,3.88,9.31,8.64,9.31s8.64-4.18,8.64-9.31S21.42,1.2,16.65,1.2,8,5.38,8,10.51Z"/><path d="M.1,41a3.61,3.61,0,0,0,3.18,3.89H19.86a1.05,1.05,0,0,0,0,.1A2.6,2.6,0,0,0,22,46.52H39.08a2.59,2.59,0,0,0,2.27-2,3.51,3.51,0,0,0,.07-.76c0-6.29-2.88-10.36-8.17-11.69a7,7,0,0,0,3.83-6.32c0-.21,0-.43,0-.63a6.65,6.65,0,0,0-6.5-6.32,6.68,6.68,0,0,0-6.38,5.47s0,.07,0,.11a21.08,21.08,0,0,0-7.46-1.83C6,23.33.1,29.88.1,41ZM31,31.48h0a6,6,0,0,1-.85,0,5.62,5.62,0,0,1-4.9-5.74,4.36,4.36,0,0,1,0-.51A5.52,5.52,0,0,1,30.55,20a5.46,5.46,0,0,1,5.3,5.24,4.36,4.36,0,0,1,0,.51A5.62,5.62,0,0,1,31,31.48ZM20.88,43.75c0-4.51,1.59-10,9.17-10.85l.53-.05.46.05c7.59.8,9.18,6.34,9.18,10.85a2.41,2.41,0,0,1,0,.5A1.34,1.34,0,0,1,39,45.32H22a1.36,1.36,0,0,1-1.09-1.07A2.41,2.41,0,0,1,20.88,43.75ZM1.1,41c0-10.51,5.54-16.71,15.59-17.45A19.63,19.63,0,0,1,24,25.42a1.67,1.67,0,0,0,0,.32,5.25,5.25,0,0,0,0,.56,2,2,0,0,0,0,.25,2.88,2.88,0,0,0,.06.41.51.51,0,0,0,0,.17,3.51,3.51,0,0,0,.13.56.43.43,0,0,0,0,0,5.26,5.26,0,0,0,.19.56,4.7,4.7,0,0,0,.21.52s0,.09.07.14.17.32.26.48a7.43,7.43,0,0,0,.73,1c.11.13.23.26.35.38a6.77,6.77,0,0,0,1.11.89l.45.26.18.08h0c-.33.08-.65.18-1,.28s-.58.21-.86.32l-.15.07c-.26.11-.5.23-.74.36l-.06,0c-.25.14-.5.28-.73.44a8,8,0,0,0-.73.53,7.62,7.62,0,0,0-.67.59,7.45,7.45,0,0,0-.61.65,8.26,8.26,0,0,0-.51.66l-.1.14c-.13.19-.26.39-.37.59a1,1,0,0,0-.1.17c-.13.23-.26.47-.37.72a9.92,9.92,0,0,0-.4,1c-.08.21-.15.43-.21.65a2.33,2.33,0,0,0-.07.25c-.09.31-.16.64-.23,1l-.12.74s0,.06,0,.08a4.79,4.79,0,0,0-.06.53,9.24,9.24,0,0,0-.07.93c0,.32,0,.65,0,1v0a.31.31,0,0,0,0,.1H3.32A2.59,2.59,0,0,1,1.1,41Z"/></g></g></g></svg>