<svg xmlns="http://www.w3.org/2000/svg" viewBox="0 0 61.11 46.52"><title>joint-application-with-kids-white</title><g fill="#fff"><path d="M44.46 0c-5.46 0-9.85 4.72-9.85 10.51s4.39 10.49 9.85 10.49 9.84-4.71 9.84-10.51-4.41-10.49-9.84-10.49zm0 19.82c-4.77 0-8.65-4.18-8.65-9.31s3.88-9.31 8.65-9.31 8.64 4.18 8.64 9.31-3.88 9.31-8.64 9.31zM44.5 22.44h-.08a21.3 21.3 0 0 0-7.48 1.83 6.64 6.64 0 0 0-6.38-5.48 6.64 6.64 0 0 0-6.38 5.48 21.3 21.3 0 0 0-7.48-1.83h-.09c-10.71.79-16.61 7.38-16.61 18.56a3.71 3.71 0 0 0 3.32 4h16.6a2.53 2.53 0 0 0 2.08 1.52h17.1a2.52 2.52 0 0 0 2.1-1.52h16.64a3.7 3.7 0 0 0 3.27-4c0-11.18-5.89-17.77-16.61-18.56zm-19.2 2.4a5.47 5.47 0 0 1 5.26-4.84 5.47 5.47 0 0 1 5.26 4.85 5.29 5.29 0 0 1 .07.9 4.36 4.36 0 0 1 0 .51 5.59 5.59 0 0 1-4.47 5.17 1.54 1.54 0 0 1-.31.05 4.53 4.53 0 0 1-1 0 1.54 1.54 0 0 1-.31-.05 5.59 5.59 0 0 1-4.47-5.17 4.36 4.36 0 0 1 0-.51 5.29 5.29 0 0 1-.03-.91zm-21.92 18.94a2.5 2.5 0 0 1-2.18-2.78c0-10.44 5.49-16.6 15.45-17.35a19.59 19.59 0 0 1 7.35 1.91 1.09 1.09 0 0 0 0 .18 7 7 0 0 0 3.82 6.33c-5.29 1.31-8.16 5.38-8.16 11.68zm36.85 0a1.58 1.58 0 0 1-.45 1.2 1.33 1.33 0 0 1-.7.34h-17a1.32 1.32 0 0 1-.74-.34 1.55 1.55 0 0 1-.46-1.2c0-4.33 1.47-9.55 8.17-10.72.44-.07.9-.13 1.38-.17h.24c.48 0 .94.1 1.38.17 6.7 1.17 8.17 6.39 8.17 10.72zm17.56 0h-16.36c0-6.3-2.88-10.37-8.17-11.68a7 7 0 0 0 3.83-6.33 1.09 1.09 0 0 0 0-.18 19.49 19.49 0 0 1 7.38-1.92c10 .75 15.45 6.91 15.45 17.35a2.51 2.51 0 0 1-2.13 2.76zM16.65 0c-5.43 0-9.84 4.72-9.84 10.51s4.41 10.49 9.84 10.49 9.84-4.71 9.84-10.51-4.41-10.49-9.84-10.49zm0 19.82c-4.77 0-8.65-4.18-8.65-9.31s3.88-9.31 8.65-9.31 8.64 4.18 8.64 9.31-3.87 9.31-8.64 9.31z"/></g></svg>