<svg xmlns="http://www.w3.org/2000/svg" viewBox="0 0 62.95 44.97"><title>Asset 9</title><g fill="#fff"><path d="M46.34 22.43h-.08c-7.26.57-12.26 3.71-14.78 9.16-2.48-5.45-7.55-8.59-14.78-9.16h-.09c-10.71.79-16.61 7.38-16.61 18.57a3.71 3.71 0 0 0 3.32 4h26.68a3.71 3.71 0 0 0 1.46-.48 3.74 3.74 0 0 0 1.54.48h26.68a3.71 3.71 0 0 0 3.32-4c0-11.19-6-17.78-16.66-18.57zm-16.34 21.34h-26.62a2.49 2.49 0 0 1-2.18-2.77c0-10.44 5.49-16.59 15.45-17.35 7.17.55 12 3.88 14.18 9.58a23.8 23.8 0 0 0-1.18 7.77 4.06 4.06 0 0 0 .85 2.66 2.52 2.52 0 0 1-.5.11zm29.65 0h-26.65a2.48 2.48 0 0 1-.55-.13 2.32 2.32 0 0 1-1-.68 3 3 0 0 1-.63-2 23.64 23.64 0 0 1 .63-5.64 17.59 17.59 0 0 1 .65-2.13c2.16-5.7 7-9 14.17-9.58 10 .76 15.45 6.91 15.45 17.35a2.5 2.5 0 0 1-2.09 2.81zM16.65 0c-5.43 0-9.84 4.71-9.84 10.51s4.41 10.49 9.84 10.49 9.84-4.71 9.84-10.5-4.41-10.5-9.84-10.5zm0 19.81c-4.77 0-8.64-4.17-8.64-9.3s3.87-9.31 8.64-9.31 8.64 4.17 8.64 9.31-3.87 9.3-8.64 9.3zM46.3 0c-5.43 0-9.85 4.71-9.85 10.51s4.42 10.49 9.85 10.49 9.84-4.71 9.84-10.5-4.42-10.5-9.84-10.5zm0 19.81c-4.77 0-8.65-4.17-8.65-9.3s3.88-9.31 8.65-9.31 8.64 4.17 8.64 9.31-3.88 9.3-8.64 9.3z"/></g></svg>