<svg xmlns="http://www.w3.org/2000/svg" viewBox="0 0 62.5 44.65"><title>joint-applcant</title><g id="Layer_2" data-name="Layer 2"><g id="Layer_1-2" data-name="Layer 1"><g id="joint-applcant"><path d="M16.42,20.82c-5.37,0-9.74-4.67-9.74-10.41S11,0,16.42,0s9.74,4.67,9.74,10.41S21.79,20.82,16.42,20.82ZM16.42,1C11.6,1,7.68,5.22,7.68,10.41s3.92,9.41,8.74,9.41,8.74-4.22,8.74-9.41S21.24,1,16.42,1Z"/><path d="M46,22.56c-9,.66-13,5.36-14.79,9.53-1.78-4.17-5.79-8.87-14.86-9.53C5.82,23.34,0,29.84,0,40.88a3.53,3.53,0,0,0,3.09,3.77H29.78a3.53,3.53,0,0,0,1.47-.53,3.76,3.76,0,0,0,1.49.54H59.43a3.51,3.51,0,0,0,3.07-3.76C62.5,29.84,56.67,23.33,46,22.56ZM29.75,43.9H3.12a2.73,2.73,0,0,1-2.37-3c0-10.59,5.57-16.83,15.64-17.58,7.4.55,12.26,3.85,14.46,9.82-.13.38-.25.76-.36,1.13l-.15.55c-.14.55-.25,1.09-.34,1.61s-.16,1-.21,1.47a28.25,28.25,0,0,0-.14,3,4.64,4.64,0,0,0,0,.54,1.23,1.23,0,0,0,0,.2,2.24,2.24,0,0,0,.08.39s0,0,0,0,.09.31.14.46a4.3,4.3,0,0,0,.2.43c.06.11.13.22.19.31a3,3,0,0,0,.31.37A3.21,3.21,0,0,1,29.75,43.9Zm29.65,0H32.78a2.8,2.8,0,0,1-1.08-.38l-.23-.16a2.88,2.88,0,0,1-1.08-2.48,22.16,22.16,0,0,1,1.21-7.63s0-.09,0-.13c2.19-6,7-9.27,14.39-9.82,10.13.75,15.71,7,15.71,17.58A2.76,2.76,0,0,1,59.4,43.9Z"/><path d="M46.07,20.82c-5.37,0-9.74-4.67-9.74-10.41S40.69,0,46.07,0s9.74,4.67,9.74,10.41S51.44,20.82,46.07,20.82ZM46.07,1c-4.82,0-8.74,4.22-8.74,9.41s3.92,9.41,8.74,9.41,8.74-4.22,8.74-9.41S50.89,1,46.07,1Z"/></g></g></g></svg>