<svg xmlns="http://www.w3.org/2000/svg" viewBox="0 0 33.31 44.97"><defs><clipPath id="a"><path fill="none" d="M0 0h33.31v44.97h-33.31z"/></clipPath></defs><title>sole-applicant-white</title><g clip-path="url(#a)" fill="#fff"><path d="M16.65 45h-13.33a3.71 3.71 0 0 1-3.32-4c0-11.19 5.9-17.77 16.61-18.56h.09c10.71.79 16.61 7.38 16.61 18.55a3.7 3.7 0 0 1-3.31 4.01zm0-21.34c-9.96.73-15.45 6.89-15.45 17.34a2.5 2.5 0 0 0 2.18 2.79h26.62a2.5 2.5 0 0 0 2.11-2.79c0-10.45-5.49-16.61-15.46-17.36zM16.65 21c-5.43 0-9.84-4.71-9.84-10.51s4.41-10.49 9.84-10.49 9.84 4.71 9.84 10.51-4.41 10.49-9.84 10.49zm0-19.82c-4.77.02-8.65 4.2-8.65 9.33s3.88 9.31 8.64 9.31 8.64-4.18 8.64-9.31-3.86-9.31-8.63-9.31z"/></g></svg>