<svg xmlns="http://www.w3.org/2000/svg" viewBox="0 0 41.43 46.52"><title>sole-applicant-with-kids</title><g fill="#fff"><path d="M16.65 0c-5.43 0-9.84 4.72-9.84 10.51s4.41 10.49 9.84 10.49 9.84-4.71 9.84-10.51-4.41-10.49-9.84-10.49zm0 19.82c-4.77 0-8.65-4.18-8.65-9.31s3.88-9.31 8.65-9.31 8.64 4.18 8.64 9.31-3.87 9.31-8.64 9.31zM33.26 32.07a7 7 0 0 0 3.83-6.33 6.76 6.76 0 0 0-6.53-7 6.64 6.64 0 0 0-6.38 5.48 21.3 21.3 0 0 0-7.48-1.83h-.09c-10.71.84-16.61 7.43-16.61 18.61a3.71 3.71 0 0 0 3.32 4h16.6a2.53 2.53 0 0 0 2.08 1.52h17.1a2.58 2.58 0 0 0 2.3-2.77c.03-6.3-2.85-10.37-8.14-11.68zm-2.7-12.07a5.56 5.56 0 0 1 5.33 5.75 5.63 5.63 0 0 1-4.5 5.68 3.83 3.83 0 0 1-.83.08 4.42 4.42 0 0 1-.52 0 5.55 5.55 0 0 1-4.78-5.22 4.36 4.36 0 0 1 0-.51 5.29 5.29 0 0 1 .07-.9 5.47 5.47 0 0 1 5.23-4.88zm-10.87 23.75h-16.32a2.5 2.5 0 0 1-2.17-2.75c0-10.44 5.49-16.6 15.45-17.35a19.59 19.59 0 0 1 7.35 1.91 1.09 1.09 0 0 0 0 .18 7 7 0 0 0 3.82 6.33c-5.26 1.31-8.13 5.38-8.13 11.68zm19.39 1.57h-17a1.32 1.32 0 0 1-.74-.34 1.55 1.55 0 0 1-.46-1.2c0-4.64 1.68-10.29 9.67-10.9h.12c.48 0 .94.1 1.38.17 6.7 1.17 8.17 6.39 8.17 10.72.01 1.36-.99 1.53-1.14 1.55z"/></g></svg>