<svg xmlns="http://www.w3.org/2000/svg" viewBox="0 0 32.85 44.65"><title>sole-applicant</title><g id="Layer_2" data-name="Layer 2"><g id="Layer_1-2" data-name="Layer 1"><path d="M3.09,44.65A3.6,3.6,0,0,1,1.38,44,3.55,3.55,0,0,1,0,40.88,22.84,22.84,0,0,1,1.25,33c1.56-4.37,5.46-9.72,15.15-10.44,10.63.78,16.45,7.29,16.45,18.32a3.51,3.51,0,0,1-3.06,3.76ZM16.4,23.31C9,23.86,4.12,27.2,2,33.25A22.22,22.22,0,0,0,.75,40.88a2.85,2.85,0,0,0,1.07,2.48,2.92,2.92,0,0,0,1.31.54H29.75a2.75,2.75,0,0,0,2.35-3C32.1,30.29,26.52,24.05,16.4,23.31Z"/><path d="M16.42,20.82c-5.37,0-9.74-4.67-9.74-10.41S11,0,16.42,0s9.74,4.67,9.74,10.41S21.79,20.82,16.42,20.82ZM16.42,1C11.6,1,7.68,5.22,7.68,10.41s3.92,9.41,8.74,9.41,8.74-4.22,8.74-9.41S21.24,1,16.42,1Z"/></g></g></svg>