<svg xmlns="http://www.w3.org/2000/svg" viewBox="0 0 61.11 46.52"><title>joint-applcant-with-kids</title><g id="Layer_2" data-name="Layer 2"><g id="Layer_1-2" data-name="Layer 1"><g id="joint-applcant-with-kids"><path d="M33.26,32.06h0l.17-.09Zm2.09-1.61a6.66,6.66,0,0,0,.73-1A7.43,7.43,0,0,1,35.35,30.45Zm9.07-8a21.35,21.35,0,0,0-7.48,1.82s0,.07,0,.11a21.08,21.08,0,0,1,7.46-1.83C55.15,23.33,61,29.88,61,41a3.61,3.61,0,0,1-3.18,3.89H41.25a1.05,1.05,0,0,1,0,.1H57.84a3.71,3.71,0,0,0,3.27-4C61.11,29.82,55.21,23.23,44.42,22.44Zm0,1.1a19.63,19.63,0,0,0-7.35,1.88,1.67,1.67,0,0,1,0,.32v-.22a19.57,19.57,0,0,1,7.33-1.88c10,.73,15.49,6.9,15.49,17.35a2.5,2.5,0,0,1-2.12,2.79H41.43a.31.31,0,0,1,0,.1H57.79A2.59,2.59,0,0,0,60,41C60,30.48,54.47,24.28,44.42,23.54Zm-9.07,6.91a6.66,6.66,0,0,0,.73-1A7.43,7.43,0,0,1,35.35,30.45Zm-2.09,1.61h0l.17-.09Zm-1.84-.61-.43,0a6,6,0,0,1-.85,0h0l-.43,0-.13.3.37,0,.59,0,.66,0,.36,0Z"/><path d="M44.46,20.92c-5.37,0-9.74-4.67-9.74-10.41S39.09.1,44.46.1,54.2,4.77,54.2,10.51,49.83,20.92,44.46,20.92Zm0-19.82c-4.82,0-8.74,4.22-8.74,9.41s3.92,9.41,8.74,9.41,8.74-4.22,8.74-9.41S49.28,1.1,44.46,1.1Z"/><path d="M44.46,21C39,21,34.61,16.3,34.61,10.51S39,0,44.46,0,54.3,4.71,54.3,10.51,49.89,21,44.46,21Zm0-19.82c-4.77,0-8.64,4.18-8.64,9.31s3.88,9.31,8.64,9.31,8.64-4.18,8.64-9.31S49.22,1.2,44.46,1.2Z"/><path d="M31.42,31.45l-.43,0a6,6,0,0,1-.85,0h0l-.43,0-.13.3.37,0,.59,0,.66,0,.36,0ZM27.68,32l.17.09h0ZM25,29.44a6.66,6.66,0,0,0,.73,1A7.43,7.43,0,0,1,25,29.44Zm-1-4a19.65,19.65,0,0,0-7.43-1.89C6.64,24.28,1.1,30.48,1.1,41a2.6,2.6,0,0,0,2.26,2.89H19.7a.31.31,0,0,1,0-.1H3.37A2.5,2.5,0,0,1,1.2,41c0-10.45,5.5-16.61,15.41-17.35A19.55,19.55,0,0,1,24,25.53v.21C24,25.64,24,25.53,24,25.43Zm-7.43-2.89a21.1,21.1,0,0,1,7.55,1.83.3.3,0,0,1,0-.1,21.21,21.21,0,0,0-7.57-1.83C5.9,23.23,0,29.82,0,41a3.71,3.71,0,0,0,3.32,4H19.91a1.05,1.05,0,0,1,0-.1H3.32A3.61,3.61,0,0,1,.1,41C.1,29.88,6,23.33,16.61,22.54Z"/><path d="M16.65,20.92c-5.37,0-9.74-4.67-9.74-10.41S11.28.1,16.65.1s9.74,4.67,9.74,10.41S22,20.92,16.65,20.92Zm0-19.82c-4.82,0-8.74,4.22-8.74,9.41s3.92,9.41,8.74,9.41,8.74-4.22,8.74-9.41S21.47,1.1,16.65,1.1Z"/><path d="M16.65,21c-5.43,0-9.84-4.71-9.84-10.51S11.22,0,16.65,0s9.84,4.71,9.84,10.51S22.08,21,16.65,21Zm0-19.82C11.88,1.2,8,5.38,8,10.51s3.88,9.31,8.64,9.31,8.64-4.18,8.64-9.31S21.42,1.2,16.65,1.2Z"/><path d="M44.42,22.54A21.08,21.08,0,0,0,37,24.37s0-.07,0-.11a6.68,6.68,0,0,0-6.38-5.47,6.58,6.58,0,0,0-6.38,5.48.3.3,0,0,0,0,.1,21.1,21.1,0,0,0-7.55-1.83C6,23.33.1,29.88.1,41a3.61,3.61,0,0,0,3.22,3.89H19.87a1.05,1.05,0,0,0,0,.1A2.61,2.61,0,0,0,22,46.52H39.14A2.6,2.6,0,0,0,41.21,45a1.05,1.05,0,0,0,0-.1H57.83A3.61,3.61,0,0,0,61,41C61,29.88,55.15,23.33,44.42,22.54ZM25.26,25.23a.17.17,0,0,1,0-.07A5.45,5.45,0,0,1,30.56,20a5.52,5.52,0,0,1,5.3,5.24,4.36,4.36,0,0,1,0,.51A5.62,5.62,0,0,1,31,31.48l.43,0,.13.3-.36,0-.66,0-.59,0-.37,0,.13-.3.43,0a5.62,5.62,0,0,1-4.9-5.74A4.36,4.36,0,0,1,25.26,25.23Zm-5,14a2.31,2.31,0,0,0-.07.25c-.09.31-.16.64-.23,1l-.12.74s0,.06,0,.08a4.79,4.79,0,0,0-.06.53,9.24,9.24,0,0,0-.07.93c0,.32,0,.65,0,1v0a.31.31,0,0,0,0,.1H3.36A2.6,2.6,0,0,1,1.1,41c0-10.51,5.54-16.71,15.51-17.45A19.65,19.65,0,0,1,24,25.43c0,.1,0,.21,0,.31a5.25,5.25,0,0,0,0,.56,2,2,0,0,0,0,.25,2.89,2.89,0,0,0,.06.41.51.51,0,0,0,0,.17,3.51,3.51,0,0,0,.13.56.43.43,0,0,0,0,0,5.26,5.26,0,0,0,.19.56,4.7,4.7,0,0,0,.21.52l.07.14c.08.16.17.32.26.48a7.43,7.43,0,0,0,.73,1,6.13,6.13,0,0,0,.43.45c.15.14.3.28.46.41l.5.36a5.47,5.47,0,0,0,.52.31l.18.08h0c-.33.08-.65.18-1,.28l-.76.28a2.52,2.52,0,0,0-.33.15c-.23.1-.45.21-.66.32l-.06,0c-.25.14-.5.28-.73.44a8,8,0,0,0-.73.53,7.62,7.62,0,0,0-.67.59,7.45,7.45,0,0,0-.61.65,8.25,8.25,0,0,0-.51.66l-.1.14c-.13.19-.26.39-.37.59a1,1,0,0,0-.1.17c-.13.23-.26.47-.37.72a9.92,9.92,0,0,0-.4,1C20.41,38.83,20.34,39,20.28,39.27Zm19.9,5a1.36,1.36,0,0,1-1.09,1.07h-17a1.34,1.34,0,0,1-1.15-1.07,2.41,2.41,0,0,1,0-.5c0-4.51,1.59-10,9.18-10.85l.46-.05.53.05h0c7.54.82,9.12,6.34,9.12,10.84A2.41,2.41,0,0,1,40.18,44.25Zm17.61-.37H41.42a.31.31,0,0,0,0-.1v0c0-.33,0-.66,0-1a9.24,9.24,0,0,0-.07-.93,4.79,4.79,0,0,0-.06-.53s0,0,0-.08l-.12-.74c-.07-.33-.14-.66-.23-1a2.33,2.33,0,0,0-.07-.25c-.06-.22-.13-.44-.21-.65a9.92,9.92,0,0,0-.4-1c-.11-.25-.24-.49-.37-.72a1,1,0,0,0-.1-.17c-.11-.2-.24-.4-.37-.59l-.1-.14a8.26,8.26,0,0,0-.51-.66,7.45,7.45,0,0,0-.61-.65,7.62,7.62,0,0,0-.67-.59,8,8,0,0,0-.73-.53c-.23-.16-.48-.3-.73-.44l-.06,0c-.24-.13-.48-.25-.74-.36l-.15-.07c-.28-.11-.56-.22-.86-.32s-.63-.2-1-.28h0l.18-.08.45-.26A6.77,6.77,0,0,0,35,30.83c.12-.12.24-.25.35-.38a7.43,7.43,0,0,0,.73-1c.09-.16.18-.32.26-.48s0-.09.07-.14a4.7,4.7,0,0,0,.21-.52,5.26,5.26,0,0,0,.19-.56.43.43,0,0,0,0,0,3.51,3.51,0,0,0,.13-.56A.51.51,0,0,0,37,27a2.88,2.88,0,0,0,.06-.41,2,2,0,0,0,0-.25,5.25,5.25,0,0,0,0-.56,1.67,1.67,0,0,0,0-.32,19.63,19.63,0,0,1,7.35-1.88C54.47,24.28,60,30.48,60,41A2.59,2.59,0,0,1,57.79,43.88Z"/><path d="M31.42,31.45l-.43,0a6,6,0,0,1-.85,0h0l-.43,0-.13.3.37,0,.59,0,.66,0,.36,0Zm0,0-.43,0a6,6,0,0,1-.85,0h0l-.43,0-.13.3.37,0,.59,0,.66,0,.36,0Z"/></g></g></g></svg>