<svg xmlns="http://www.w3.org/2000/svg" xmlns:xlink="http://www.w3.org/1999/xlink" viewBox="0 0 500 183.47"><defs><clipPath id="clip-path" transform="translate(0 0)"><path d="M403.56,4.67s0,.05,0,.08h0v62h17.65V47.14h0a2.36,2.36,0,0,1,2.36-2.36,2.48,2.48,0,0,1,1.79.72h0l44.56,44.56h0a2.49,2.49,0,0,1,.73,1.75,2.46,2.46,0,0,1-.48,1.42h0l-.1.1a2.12,2.12,0,0,1-.28.29l-44.55,44.53h0a2.45,2.45,0,0,1-1.68.64,2.36,2.36,0,0,1-2.36-2.36v-23.6H403.56v65.93h0s0,.07,0,.11a4.64,4.64,0,0,0,8,3.23l86.86-86.79a4.59,4.59,0,0,0,.19-6.83v0L411.77,1.64a4.66,4.66,0,0,0-8.21,3" style="fill:none"/></clipPath><linearGradient id="linear-gradient" x1="-182.13" y1="498.32" x2="-179.12" y2="498.32" gradientTransform="matrix(174.97, 0, 0, -174.97, 31822.92, 87284.92)" gradientUnits="userSpaceOnUse"><stop offset="0" stop-color="#0096bc"/><stop offset="0.01" stop-color="#0096bc"/><stop offset="0.98" stop-color="#3db8d1"/><stop offset="1" stop-color="#3db8d1"/></linearGradient><clipPath id="clip-path-2" transform="translate(0 0)"><rect width="500" height="183.47" style="fill:none"/></clipPath><clipPath id="clip-path-3" transform="translate(0 0)"><path d="M74.59,119.17H88.22V59.68H74.59Zm66.69-59.48L125.18,103.4l-16-43.71H94.54L119,119.62h12.28L155.6,59.68ZM241.77,73.09V59.68H228.14v59.48h13.63V96.52C241.77,80.75,250.11,73,262,73h.79V58.56l-1.08,0c-9.87,0-16.4,6-20,14.56M169.27,89.54v-.23c0-10.36,7-18.93,17.91-18.93,10.7,0,18.25,8.68,18.25,19.15v.23c0,10.25-7,18.81-18,18.81-10.59,0-18.14-8.67-18.14-19m-13.63,0v.23c0,16.9,13.41,30.75,31.54,30.75,18.36,0,31.88-14.08,31.88-31v-.23c0-17-13.41-30.87-31.66-30.87s-31.77,14.08-31.77,31.1m109.83,0v.23a30.37,30.37,0,0,0,30.75,30.75c11.6,0,18.48-4.62,24.33-11.15l-8.22-8.11c-4.28,4.39-9,7.32-15.44,7.32-10.48,0-17.8-8.45-17.8-19v-.23c0-10.36,7.32-18.93,17.23-18.93,6.76,0,11.16,3,15.32,7.44l8.56-9.13c-5.63-6.08-12.62-10.25-23.77-10.25-17.91,0-31,14.2-31,31.1M352.19,69.6c9,0,14.2,6.87,15.1,15.66H336.75C338,76,343.85,69.6,352.19,69.6m-29,19.83v.23c0,18.37,13.29,30.87,30.53,30.87,10.92,0,18.7-4.39,24.33-11.15l-8-7.1c-4.73,4.62-9.46,7.1-16.11,7.1-8.79,0-15.66-5.41-17.13-15.1h43.71c.11-1.35.23-2.59.23-3.83,0-17.12-9.57-32-28.5-32-17,0-29.07,14-29.07,31M74,50.56H88.68v-13H74Zm-60.13,39v-.23c0-11.83,7.77-19,17.13-19,9.13,0,17.24,7.55,17.24,19v.23c0,11.38-8.11,19-17.24,19S13.9,101,13.9,89.54M48,36.93v32c-4.28-5.63-10.48-10.48-20.28-10.48C13.57,58.44.16,69.6.16,89.31v.23c0,19.72,13.63,30.87,27.6,30.87,9.69,0,15.88-5,20.28-11.15v9.91H61.67V36.93Z" style="fill:none"/></clipPath><linearGradient id="linear-gradient-2" x1="-182.13" y1="498.4" x2="-179.12" y2="498.4" gradientTransform="matrix(174.97, 0, 0, -174.97, 31822.92, 87284.94)" xlink:href="#linear-gradient"/></defs><title>Asset 1</title><g id="Layer_2" data-name="Layer 2"><g id="Layer_1-2" data-name="Layer 1"><g style="clip-path:url(#clip-path)"><rect x="403.56" width="96.44" height="183.47" style="fill:url(#linear-gradient)"/></g><g style="clip-path:url(#clip-path-2)"><path d="M358.83,162.06c.52-5.28,4.08-9.2,8.78-9.2,5.38,0,8.2,4.29,8.62,9.2Zm9.41,15.63a14,14,0,0,0,11.13-5.07l-2.51-2.25a11.19,11.19,0,0,1-8.52,3.81c-4.81,0-8.93-3.29-9.51-9.14h21.42a10.12,10.12,0,0,0,.05-1.31c0-7.89-4.6-14.27-12.6-14.27-7.47,0-13,6.27-13,14.06v.11c0,8.36,6.06,14.06,13.48,14.06m-44.48-.63h4V161.59c0-5.07,3.45-8.47,8.1-8.47s7.47,3.14,7.47,8.15v15.78h4V160.28c0-6.43-3.81-10.82-10.35-10.82a10.23,10.23,0,0,0-9.25,5.28V150h-4Zm-13.45,0h4V150h-4Zm-.26-32.92h4.6v-4.44h-4.6Zm-13.35,32.92h4V138.91h-4Zm-32.83,0h4V161.59c0-5.07,3.45-8.47,8.1-8.47s7.47,3.14,7.47,8.15v15.78h4V160.28c0-6.43-3.81-10.82-10.35-10.82a10.23,10.23,0,0,0-9.25,5.28V150h-4Zm-21.64-3c-5.7,0-10-4.7-10-10.51v-.11c0-5.7,4-10.45,9.88-10.45,5.7,0,10,4.76,10,10.56v.11c0,5.7-4.08,10.4-9.93,10.4m-.11,3.61a14,14,0,0,0,14.16-14.11v-.11a14.08,14.08,0,0,0-28.16.11v.11a13.84,13.84,0,0,0,14,14M196,177.58c5.38,0,9.61-3,9.61-8.1v-.11c0-4.86-4.49-6.48-8.67-7.73-3.61-1.1-7-2.09-7-4.65v-.11c0-2.25,2-3.92,5.23-3.92a15.3,15.3,0,0,1,8,2.61l1.83-3a18.47,18.47,0,0,0-9.72-3c-5.33,0-9.2,3.08-9.2,7.73v.11c0,5,4.7,6.43,8.94,7.63,3.55,1,6.74,2,6.74,4.76v.1c0,2.61-2.35,4.29-5.59,4.29a15.8,15.8,0,0,1-9.36-3.45l-2,2.87a18.57,18.57,0,0,0,11.18,4m-37.69-15.52c.52-5.28,4.08-9.2,8.78-9.2,5.38,0,8.2,4.29,8.62,9.2Zm9.41,15.63a14,14,0,0,0,11.13-5.07l-2.51-2.25a11.18,11.18,0,0,1-8.52,3.81c-4.81,0-8.94-3.29-9.51-9.14h21.43a10.7,10.7,0,0,0,.05-1.31c0-7.89-4.6-14.27-12.59-14.27-7.47,0-13,6.27-13,14.06v.11c0,8.36,6.06,14.06,13.48,14.06m-29.07,0c5.07,0,8.31-2.2,11-5.23l-2.56-2.4c-2.14,2.3-4.81,4-8.26,4-5.64,0-9.93-4.65-9.93-10.51v-.11c0-5.8,4.18-10.45,9.67-10.45,3.66,0,6.06,1.83,8.2,4.08l2.67-2.82a14.07,14.07,0,0,0-24.66,9.3v.11a13.87,13.87,0,0,0,13.85,14m-25.54-.63h4V150h-4Zm-.26-32.92h4.6v-4.44h-4.6ZM91.3,177.27h3.55L106.62,150h-4.34l-9.15,22.42L84,150H79.6Zm-31.6-.21h4V166.29c0-8.15,4.81-12.39,10.71-12.39h.31v-4.34c-5.12-.21-9,3-11,7.53V150h-4Zm-29-15c.52-5.28,4.08-9.2,8.78-9.2,5.38,0,8.2,4.29,8.62,9.2Zm9.41,15.63a14,14,0,0,0,11.13-5.07l-2.51-2.25a11.18,11.18,0,0,1-8.52,3.81c-4.81,0-8.94-3.29-9.51-9.14H52.1a10.71,10.71,0,0,0,.05-1.31c0-7.89-4.6-14.27-12.59-14.27-7.47,0-13,6.27-13,14.06v.11c0,8.36,6.06,14.06,13.48,14.06m-28.9-.11c5.38,0,9.61-3,9.61-8.1v-.11c0-4.86-4.49-6.48-8.67-7.73-3.61-1.1-6.95-2.09-6.95-4.65v-.11c0-2.25,2-3.92,5.23-3.92a15.29,15.29,0,0,1,8,2.61l1.83-3a18.48,18.48,0,0,0-9.72-3c-5.33,0-9.2,3.08-9.2,7.73v.11c0,5,4.7,6.43,8.94,7.63,3.55,1,6.74,2,6.74,4.76v.1c0,2.61-2.35,4.29-5.59,4.29A15.78,15.78,0,0,1,2,170.74l-2,2.87a18.57,18.57,0,0,0,11.18,4" transform="translate(0 0)" style="fill:#617c89"/></g><g style="clip-path:url(#clip-path-3)"><rect x="0.16" y="36.93" width="380.64" height="83.59" style="fill:url(#linear-gradient-2)"/></g></g></g></svg>